# xmcd CD database file
#
# Track frame offsets:
#	150
#	16427
#	41467
#	65437
#	86420
#	98300
#	121430
#	148427
#	166280
#	186057
#	200890
#
# Disc length: 2825 seconds
#
# Revision: 0
# Processed by: cddbd v1.4PL0 Copyright (c) Steve Scherf et al.
# Submitted via: CDex 1.50Beta6
#
DISCID=950b070b
DTITLE=John Chiasson - Here in the Moonlight
DYEAR=1997
DGENRE=Jazz
TTITLE0=Here in the Moonlight
TTITLE1=Stardust
TTITLE2=God Bless the Child
TTITLE3=In a Sentimental Mood
TTITLE4=My Romance
TTITLE5='Round Midnight
TTITLE6=My One and Only Love
TTITLE7=Misty (Duet with Raylene Rankin)
TTITLE8=Body and Soul
TTITLE9=My Foolish Heart
TTITLE10=East of the Sun (and West of the Moon)
EXTD=YEAR: 1997
EXTT0=
EXTT1=
EXTT2=
EXTT3=
EXTT4=
EXTT5=
EXTT6=
EXTT7=
EXTT8=
EXTT9=
EXTT10=
PLAYORDER=
